<svg xmlns="http://www.w3.org/2000/svg" width="256" height="256" viewBox="0 0 256 256"><defs><linearGradient id="a" x1="100%" x2="0%" y1="4.18%" y2="65.116%"><stop stop-color="#FAFAFA" offset="0%"/><stop stop-color="#D9D9D9" offset="100%"/></linearGradient><linearGradient id="b" x1="108.208%" x2="5.433%" y1="12.265%" y2="86.92%"><stop stop-color="#FAFAFA" offset="0%"/><stop stop-color="#D9D9D9" offset="100%"/></linearGradient></defs><g fill="none"><path fill="#fff" stroke="#EBEBEB" stroke-width="8.456" d="M128.744 13l99.745 57.46v114.921l-99.745 57.46-99.744-57.46v-114.921z"/><path fill="url(#a)" d="M129 17.941l90.395 51.432-4.057 117.675-86.903 4.653z"/><path fill="url(#b)" d="M129 17.814l-90.961 51.559-3.191 113.538 93.587 8.79z"/><path fill="#41B883" d="M32.955 72.755l95.789 54.681v110.49l-95.789-54.681z"/><path fill="#35495E" d="M224.48 71.627l-95.789 55.809v110.49l95.789-54.681z"/><path fill="#596F85" d="M224.48 71.627l-95.789 55.809v-7.892l88.445-51.299z"/><path fill="#61D09F" d="M32.955 72.755l95.789 54.681v-7.892l-89.575-50.171z"/></g></svg>